<?xml version="1.0" standalone="no"?><!DOCTYPE svg PUBLIC "-//W3C//DTD SVG 1.1//EN" "http://www.w3.org/Graphics/SVG/1.1/DTD/svg11.dtd"><svg t="1700504855409" class="icon" viewBox="0 0 1024 1024" version="1.1" xmlns="http://www.w3.org/2000/svg" p-id="1486" xmlns:xlink="http://www.w3.org/1999/xlink" width="200" height="200"><path d="M379.733333 651.306667a34.773333 34.773333 0 0 1 4.266667-27.52l77.013333-120.96a45.226667 45.226667 0 0 0 3.626667-42.666667L395.946667 298.666667a45.44 45.44 0 0 1 4.906666-44.16L461.44 170.666667a22.613333 22.613333 0 0 0-2.133333-29.226667 307.84 307.84 0 0 0-104.106667-73.6C275.413333 37.546667 78.933333 53.12 78.933333 270.08c0 176.853333 182.826667 376.96 311.04 495.36a11.306667 11.306667 0 0 0 18.56-11.52z" fill="#FF6242" p-id="1487"></path><path d="M668.8 67.413333a295.04 295.04 0 0 0-97.92 67.626667l-92.373333 128a45.44 45.44 0 0 0-4.906667 44.16l69.76 165.333333a33.92 33.92 0 0 1-2.56 31.573334l-80.426667 126.293333a44.8 44.8 0 0 0-5.333333 36.48L512 868.906667s433.066667-326.826667 433.066667-598.826667c0-216.96-196.48-232.533333-276.266667-202.666667z" fill="#FF6242" p-id="1488"></path><path d="M461.44 170.666667a22.613333 22.613333 0 0 0-2.133333-29.226667 307.84 307.84 0 0 0-104.106667-73.6C275.413333 37.546667 78.933333 53.12 78.933333 270.08a281.813333 281.813333 0 0 0 5.12 53.12c30.293333-140.586667 198.613333-149.333333 271.146667-126.72a312.533333 312.533333 0 0 1 65.706667 30.293333zM668.8 67.413333a295.04 295.04 0 0 0-97.92 67.626667l-94.08 130.56A448 448 0 0 1 512 296.746667a450.346667 450.346667 0 0 1 156.8-100.266667c72.533333-23.253333 240.853333-13.866667 271.146667 126.72a281.813333 281.813333 0 0 0 5.12-53.12c0-216.96-196.48-232.533333-276.266667-202.666667z" fill="#FF866E" p-id="1489"></path><path d="M250.666667 968.533333a261.333333 34.133333 0 1 0 522.666666 0 261.333333 34.133333 0 1 0-522.666666 0Z" fill="#45413C" opacity=".15" p-id="1490"></path></svg>