<?xml version="1.0" standalone="no"?><!DOCTYPE svg PUBLIC "-//W3C//DTD SVG 1.1//EN" "http://www.w3.org/Graphics/SVG/1.1/DTD/svg11.dtd"><svg t="1681114717784" class="icon" viewBox="0 0 1024 1024" version="1.1" xmlns="http://www.w3.org/2000/svg" p-id="12936" xmlns:xlink="http://www.w3.org/1999/xlink" width="200" height="200"><path d="M892 706.6c4-9.1 8.7-22.6 10.6-38.4 3.2-27.2-1.6-66.2-42.2-98.4l-267.6-239c6.7 16.3 10.5 34 10.9 52.6L813.6 571 372 632.9l-213.1 29.9L343 475.5c-6.7-8.7-12.5-18.1-17.2-28.1L103 674l-0.3 0.3c-0.1 0.1-0.2 0.2-0.3 0.4-0.3 0.3-0.5 0.6-0.7 0.9 0 0.1-0.1 0.1-0.1 0.2v0.1c-0.3 0.4-0.6 0.8-0.8 1.3 0 0.1-0.1 0.1-0.1 0.2-0.2 0.4-0.4 0.7-0.6 1.1-0.1 0.1-0.1 0.3-0.2 0.4-0.1 0.3-0.3 0.7-0.4 1 0 0.1-0.1 0.2-0.1 0.4-0.2 0.5-0.3 0.9-0.4 1.4v0.1c-0.1 0.4-0.2 0.9-0.2 1.3 0 0.1 0 0.3-0.1 0.4 0 0.3-0.1 0.7-0.1 1V686.4c0 0.5 0.1 1 0.2 1.5v0.1L121 816.5 143 945c1.3 7.8 8.1 13.3 15.7 13.3 0.7 0 1.5-0.1 2.2-0.2L896.5 855c4.7-0.7 8.9-3.4 11.4-7.5 0.5-0.9 13.4-22.1 16.8-50.7 3-24.9-0.7-59.8-32.7-90.2z m-30.2-10.7l-712.1 99.8-16.7-97 712.2-99.9c39.8 35.7 24.4 80.6 16.6 97.1zM884 824.4l-712.1 99.9-16.7-97 712.2-99.9c39.8 35.6 24.4 80.5 16.6 97z" fill="#418CFE" p-id="12937"></path><path d="M474.8 241.4c0.5-36-5.2-121.1-66.6-172-6.8-5.6-16.9-4.7-22.5 2.1-5.6 6.8-4.7 16.9 2.1 22.5 50.6 42 55.3 116.7 54.9 147.2-73.2 7.8-130.4 69.8-130.4 145 0 80.3 65.4 145.7 145.7 145.7 80.3 0 145.7-65.4 145.7-145.7 0-74.7-56.4-136.4-128.9-144.8zM458 499.9c-62.7 0-113.7-51-113.7-113.7s51-113.7 113.7-113.7 113.7 51 113.7 113.7-51 113.7-113.7 113.7z" fill="#0DE28B" p-id="12938"></path></svg>