<?xml version="1.0" standalone="no"?><!DOCTYPE svg PUBLIC "-//W3C//DTD SVG 1.1//EN" "http://www.w3.org/Graphics/SVG/1.1/DTD/svg11.dtd"><svg t="1681114047901" class="icon" viewBox="0 0 1024 1024" version="1.1" xmlns="http://www.w3.org/2000/svg" p-id="4407" xmlns:xlink="http://www.w3.org/1999/xlink" width="200" height="200"><path d="M945.530322 513.529843l0-0.354064c0 0-75.003228-45.827745-165.148317-126.074394-68.285223-60.795645-112.76425-101.42704-130.34158-117.5523-16.607236-18.017352-40.419572-29.310559-66.88534-29.310559-29.762861 0-56.181557 14.286378-72.783677 36.383652-16.588817-22.096251-43.008536-36.383652-72.78163-36.383652-27.819602 0-52.721759 12.483312-69.406766 32.16456-12.43931 11.387351-53.605895 48.916083-127.474276 114.699322C150.564669 467.348034 75.560418 513.176802 75.560418 513.176802l0 0.354064c-8.333806 1.654686-14.625092 9.022491-14.625092 17.844413 0 8.823969 6.291287 16.184611 14.625092 17.84032l0 0.425695c0 0 142.31324 51.17452 253.553787 163.588799 34.735106 35.129078 119.073956 64.727187 181.257204 67.567885l0 0.013303c0.080841 0 0.132006 0 0.199545 0 0.034792 0 0.085958 0 0.146333 0 55.665811-1.930979 147.252739-31.320333 181.991937-66.430992 111.23543-112.419396 252.821099-164.738995 252.821099-164.738995l0-0.425695c8.335852-1.654686 14.625092-9.016351 14.625092-17.84032C960.155415 522.552334 953.866175 515.184529 945.530322 513.529843zM637.551996 537.727964c-47.556109 21.099551-69.354578 50.603515-125.485992 50.112328-47.727001-0.432859-74.752518-32.137954-111.286596-50.112328-54.396911-26.770713-90.343611-43.298132-90.343611-43.298132l418.48721 0C728.923006 494.429833 690.661587 514.163269 637.551996 537.727964z" fill="#d81e06" p-id="4408"></path></svg>