<?xml version="1.0" standalone="no"?><!DOCTYPE svg PUBLIC "-//W3C//DTD SVG 1.1//EN" "http://www.w3.org/Graphics/SVG/1.1/DTD/svg11.dtd"><svg t="1681114448831" class="icon" viewBox="0 0 1336 1024" version="1.1" xmlns="http://www.w3.org/2000/svg" p-id="7077" xmlns:xlink="http://www.w3.org/1999/xlink" width="260.9375" height="200"><path d="M4.097777 584.957696L118.835539 788.822112s8.195554 9.219999 35.855551-4.097777S245.866632 718.135455 260.208853 717.111011c18.439997-5.122222 90.151099-9.219999 120.884427 4.097777s145.471091 25.611108 175.179976 0 87.077766-90.151099 87.077765-90.151098 18.439997-52.246659-25.611107-72.735546c-44.051105-19.464442-46.099994 13.317776-46.099994 13.317776s-27.659996 39.953328-51.222215 50.197771-93.224431 16.391109-111.664429-38.928883 16.391109-107.566652 79.906656-108.591096 71.711101 56.344437 75.808878 65.564435 53.271104 2.048889 64.539991-5.122222c12.293332-8.195554 31.757773-26.635552 9.219999-72.735545s-94.248876-90.151099-156.739978-96.297764c-14.34222 0-15.366665-8.195554 0-9.219999 15.366665-1.024444 80.9311-5.122222 99.371097 5.122221s36.879995 18.439997 59.417769 13.317776c22.537775-5.122222 60.442214-37.904439 20.488886-87.077765S478.415489 256.111075 474.317712 256.111075s-7.17111-6.146666 6.146665-12.293331c12.293332-8.195554 56.344437-25.611108 85.028877-28.684441s59.417769-44.051105 38.928884-72.735545-59.417769-24.586663-85.028877-21.51333c-53.271104 19.464442-108.591096 50.197771-111.664429 50.19777-8.195554 0-14.34222-15.366665-5.122222-21.51333s71.711101-60.442214 85.028878-82.979988c9.219999-11.268887 1.024444-72.735545-73.75999-65.564436-20.488886 6.146666-133.177759 103.468874-151.617757 166.984421s-23.562219 109.61554-35.85555 150.593313c-21.51333 61.466658-38.928883 90.151099-85.028877 149.568868-31.757773 23.562219-119.859983 61.466658-132.153315 80.9311s-10.244443 27.659996-5.122222 35.85555zM1331.777592 440.51105l-114.737762-203.864416s-8.195554-9.219999-35.85555 4.097777-91.175543 66.58888-105.517763 67.613324c-17.415553 5.122222-89.126654 9.219999-119.859984-4.097777s-146.495535-25.611108-175.179975 0-87.077766 90.151099-87.077766 90.151098-18.439997 52.246659 25.611108 72.735545 46.099994-13.317776 46.099993-13.317775 27.659996-39.953328 51.222215-50.197771 93.224431-16.391109 111.664429 38.928883-16.391109 107.566652-79.906655 107.566652-71.711101-56.344437-75.808879-65.564435-56.344437-3.073333-64.539991 5.122221c-8.195554 7.17111-31.757773 26.635552-9.219998 72.735546s94.248876 90.151099 156.739978 96.297764c14.34222 0 15.366665 8.195554 0 9.219999s-80.9311 5.122222-99.371097-5.122222c-18.439997-10.244443-36.879995-18.439997-59.41777-13.317776s-60.442214 37.904439-20.488886 87.077766S858.484325 768.333226 863.606546 768.333226s5.122222 7.17111-6.146666 12.293332c-12.293332 8.195554-56.344437 25.611108-85.028877 28.68444s-59.417769 44.051105-38.928883 72.735546 59.417769 24.586663 85.028877 21.51333c53.271104-19.464442 108.591096-50.197771 111.664429-50.197771 8.195554 0 14.34222 15.366665 5.122221 21.51333s-71.711101 60.442214-85.028877 82.979989c-9.219999 11.268887-1.024444 72.735545 73.75999 65.564435 18.439997-3.073333 131.128871-101.419986 149.568868-164.935532s23.562219-109.61554 34.831106-150.593313c21.51333-61.466658 38.928883-90.151099 85.028877-149.568868 31.757773-23.562219 119.859983-61.466658 132.153315-80.9311s11.268887-29.708885 6.146666-36.879994z" p-id="7078" fill="#d81e06"></path></svg>