<?xml version="1.0" standalone="no"?><!DOCTYPE svg PUBLIC "-//W3C//DTD SVG 1.1//EN" "http://www.w3.org/Graphics/SVG/1.1/DTD/svg11.dtd"><svg t="1681114947100" class="icon" viewBox="0 0 1024 1024" version="1.1" xmlns="http://www.w3.org/2000/svg" p-id="13107" xmlns:xlink="http://www.w3.org/1999/xlink" width="200" height="200"><path d="M662.07 735.34c-80.66-55.65-127.92-122.78-134.82-190.75-6.43-63.29 38.22-122.38 101.74-125.82 34.05-1.84 64.87 12.03 85.99 34.98 2.64-15.74 14.16-29.26 30.61-33.55 22.36-5.87 45.17 7.56 50.98 29.89 1.58 6.06 10.92 43.96 9.85 85.11-0.46 17.81 7.68 34.59 21.63 44.86 146.61-258.43-157.22-458.53-316.24-189.39C358.25 122.2 48 320.33 196.07 579.92c13.84-10.28 21.92-26.98 21.46-44.72-1.07-41.15 8.26-79.05 9.85-85.11 5.81-22.32 28.62-35.76 50.98-29.89 16.45 4.29 27.96 17.81 30.61 33.55 21.12-22.95 51.95-36.82 85.99-34.98 63.52 3.44 108.18 62.53 101.74 125.82-6.9 67.97-54.16 135.11-134.82 190.75-3.98 2.74-8.07 5.44-12.2 8.12 44.8 33.2 98.55 66.07 162.47 97.83 63.96-31.56 117.75-64.35 162.55-97.54-4.29-2.77-8.52-5.57-12.64-8.41z" p-id="13108" fill="#d81e06"></path></svg>